<?xml version="1.0" standalone="no"?>
<!DOCTYPE svg PUBLIC "-//W3C//DTD SVG 20010904//EN"
 "http://www.w3.org/TR/2001/REC-SVG-20010904/DTD/svg10.dtd">
<svg version="1.0" xmlns="http://www.w3.org/2000/svg"
 width="920.000000pt" height="800.000000pt" viewBox="0 0 920.000000 800.000000"
 preserveAspectRatio="xMidYMid meet">

<g transform="translate(0.000000,800.000000) scale(0.100000,-0.100000)"
fill="#000000" stroke="none">
<path d="M5739 6794 c-22 -26 -195 -137 -384 -243 -99 -56 -198 -118 -221
-136 -49 -40 -98 -113 -120 -179 -12 -35 -20 -46 -31 -41 -40 15 -195 35 -315
41 -140 7 -420 -8 -545 -30 l-72 -12 -17 45 c-53 146 -122 206 -400 351 -120
63 -244 132 -276 152 l-57 37 -58 -60 c-155 -162 -290 -395 -339 -584 -51
-198 -43 -405 24 -613 l29 -88 -39 -45 c-55 -62 -140 -241 -192 -399 -42 -128
-68 -237 -114 -480 -46 -247 -155 -431 -353 -595 l-90 -75 63 -63 c64 -64 170
-124 284 -161 l51 -17 7 -83 c23 -303 229 -623 544 -844 l61 -42 -6 127 c-8
191 -6 192 102 72 102 -112 350 -345 500 -470 171 -143 332 -319 517 -564 86
-115 252 -358 293 -428 15 -27 31 -45 35 -40 4 4 15 31 25 58 40 113 145 281
267 430 86 105 279 294 387 378 322 253 688 589 818 750 l31 39 7 -76 c4 -42
3 -110 0 -152 l-8 -77 54 29 c71 38 169 131 240 226 131 176 249 487 249 657
l0 49 69 12 c96 16 175 56 251 128 35 34 62 63 60 65 -3 2 -26 15 -52 30 -25
15 -76 57 -112 93 -169 170 -303 453 -396 839 -21 88 -53 201 -70 250 -44 124
-128 298 -186 386 l-49 74 -1 190 c-1 143 -7 218 -22 305 -50 280 -171 533
-354 741 -56 62 -68 68 -89 43z m64 -291 c55 -76 103 -171 136 -268 51 -154
64 -246 66 -495 2 -215 4 -228 28 -292 14 -36 50 -102 79 -145 93 -135 177
-327 233 -533 15 -52 41 -149 60 -215 77 -275 227 -559 358 -678 35 -31 39
-39 27 -47 -35 -23 -99 -32 -194 -27 l-99 5 7 -78 c17 -201 -36 -405 -161
-629 -39 -71 -39 -71 -62 15 -11 42 -85 164 -98 164 -5 0 -22 -22 -40 -49
-135 -206 -594 -646 -983 -941 -85 -64 -187 -143 -227 -174 l-72 -56 -132 162
c-202 248 -354 422 -425 486 l-64 58 181 -4 c254 -6 406 17 504 78 82 51 209
268 260 445 29 99 42 252 30 331 l-7 49 -33 -123 c-38 -145 -91 -258 -140
-301 -20 -17 -40 -31 -45 -31 -6 0 -10 34 -10 75 0 110 -30 166 -105 195 -65
26 -468 21 -538 -6 -28 -10 -21 37 14 89 37 57 125 117 216 149 57 19 88 23
195 23 l127 0 7 29 c3 16 6 83 6 150 -1 144 -15 203 -77 330 -38 75 -45 99
-45 148 0 99 32 148 124 189 51 22 88 25 243 20 106 -3 155 18 226 95 122 133
125 136 154 132 l28 -3 0 -90 c0 -79 -4 -98 -31 -155 -57 -120 -178 -226 -351
-307 -43 -20 -80 -38 -81 -39 -2 -1 8 -20 22 -41 33 -48 74 -178 84 -263 l7
-65 29 50 c16 28 81 100 145 160 276 263 306 296 348 380 90 179 129 362 120
559 -7 151 -32 249 -97 381 -62 126 -151 237 -274 343 -97 83 -122 116 -126
162 -5 58 3 82 66 191 36 62 84 154 105 204 27 62 54 105 87 139 53 54 131
115 149 116 6 0 27 -21 46 -47z m-2306 -90 c34 -30 83 -82 109 -116 46 -61
105 -174 103 -199 0 -8 -3 -7 -6 2 -27 77 -84 169 -140 230 -68 73 -204 190
-221 190 -23 0 -114 -84 -154 -142 -23 -35 -57 -101 -75 -148 -18 -47 -32 -79
-33 -73 0 24 51 146 84 202 35 56 95 120 151 159 l30 20 45 -36 c25 -20 73
-60 107 -89z m-426 -339 c-5 -35 -9 -46 -10 -28 -1 34 9 97 15 91 2 -2 0 -30
-5 -63z m266 -121 c-2 -32 -3 -8 -3 52 0 61 1 87 3 58 2 -29 2 -78 0 -110z
m43 136 c0 -29 73 -161 114 -206 68 -75 140 -91 195 -44 24 21 44 69 37 87 -3
8 0 16 6 20 18 11 1 -67 -20 -96 -11 -14 -36 -31 -56 -39 -95 -36 -201 59
-275 247 -12 29 -17 51 -11 47 5 -3 10 -11 10 -16z m337 -31 c-3 -8 -6 -5 -6
6 -1 11 2 17 5 13 3 -3 4 -12 1 -19z m10 -55 c-3 -10 -5 -4 -5 12 0 17 2 24 5
18 2 -7 2 -21 0 -30z m-637 -260 c7 -30 10 -57 7 -59 -9 -9 -28 115 -32 211
l-4 100 9 -99 c5 -54 14 -123 20 -153z m219 130 c13 -13 27 -23 32 -23 4 0 5
10 3 23 -4 15 -1 13 9 -8 8 -16 13 -31 12 -33 -8 -9 -67 32 -88 60 -32 44 -45
71 -15 33 12 -16 34 -40 47 -52z m-92 -50 c-2 -21 -4 -4 -4 37 0 41 2 58 4 38
2 -21 2 -55 0 -75z m48 -212 c-9 -36 -44 -71 -72 -71 -13 0 -32 9 -44 21 -22
22 -49 80 -48 101 0 7 7 -5 15 -27 28 -76 81 -107 117 -67 28 31 30 67 8 127
-12 31 -21 63 -21 73 0 9 12 -16 26 -57 16 -47 23 -84 19 -100z m645 -512 c71
-11 165 -57 237 -116 53 -44 98 -130 88 -170 -12 -50 -33 -73 -66 -73 -25 0
-43 12 -93 64 -93 97 -154 121 -332 136 -146 11 -183 40 -134 103 22 28 66 46
144 57 74 11 85 11 156 -1z m1476 -20 c62 -30 79 -68 47 -101 -17 -16 -40 -22
-120 -29 -184 -17 -266 -49 -333 -128 -91 -108 -170 -98 -170 22 0 88 114 196
265 250 76 27 244 20 311 -14z m-88 -225 c28 -19 30 -76 3 -120 -27 -45 -98
-71 -150 -56 -47 14 -74 43 -69 74 4 30 32 34 64 9 30 -24 72 -27 98 -8 19 14
24 47 12 90 -10 32 6 36 42 11z m-1485 -53 c-5 -45 -3 -50 20 -66 31 -20 76
-13 102 14 32 36 67 5 49 -44 -17 -44 -116 -59 -171 -25 -48 29 -67 63 -60
112 6 42 19 58 49 58 15 0 16 -7 11 -49z m-209 -23 c26 -29 61 -73 79 -98 57
-78 78 -85 262 -85 148 0 163 -2 203 -23 55 -29 82 -73 82 -135 0 -60 -18
-103 -61 -143 -46 -42 -91 -55 -196 -55 -209 0 -374 108 -449 292 -67 163 -64
299 5 299 23 0 40 -12 75 -52z m-368 -130 c-11 -24 -35 -95 -53 -158 -17 -63
-32 -108 -32 -100 -1 23 47 194 69 244 17 41 18 45 2 49 -10 3 -7 5 9 6 l26 1
-21 -42z m-82 4 c-73 -39 -115 -75 -166 -140 -55 -70 -68 -95 -129 -245 -67
-166 -123 -261 -199 -337 -36 -36 -74 -70 -85 -76 -18 -10 -15 -13 27 -38 78
-46 156 -68 256 -74 105 -5 200 11 238 40 13 11 24 15 24 10 0 -6 -21 -20 -46
-33 -58 -28 -204 -37 -296 -19 -68 13 -173 57 -213 89 l-25 19 44 26 c94 55
194 207 277 421 23 61 62 140 86 177 49 75 136 157 197 188 61 30 69 23 10 -8z
m411 -472 c70 -83 195 -207 238 -235 l28 -18 -7 -96 c-3 -53 -9 -99 -13 -103
-4 -4 -3 36 2 90 l8 97 -37 30 c-102 82 -231 224 -327 358 l-56 78 -7 -37 c-4
-21 -5 -114 -2 -208 2 -94 1 -148 -3 -121 -9 64 -11 288 -3 348 l7 46 55 -77
c30 -42 83 -111 117 -152z m-421 137 c-4 -26 -10 -47 -14 -47 -4 0 -3 23 3 50
12 62 19 60 11 -3z m-21 -108 c-6 -6 -7 3 -4 23 4 28 6 29 9 9 2 -13 0 -27 -5
-32z m-6 -66 c-3 -10 -5 -2 -5 17 0 19 2 27 5 18 2 -10 2 -26 0 -35z m-10
-180 c-1 -87 -4 -135 -7 -108 -3 28 -4 66 -4 85 1 19 2 68 3 108 1 39 3 72 6
72 2 0 3 -71 2 -157z m354 -233 c63 -189 189 -394 344 -558 54 -57 99 -101
101 -99 2 2 -9 34 -25 73 -16 38 -32 85 -35 104 -4 19 6 -1 22 -45 33 -94 56
-141 86 -174 20 -22 20 -23 1 -13 -35 18 -230 225 -293 310 -72 98 -138 216
-182 326 -34 85 -81 255 -79 290 0 11 9 -17 20 -64 10 -47 29 -114 40 -150z
m361 -305 c3 -45 2 -67 -2 -50 -8 30 -13 142 -6 134 2 -2 6 -40 8 -84z m15
-122 c-3 -10 -5 -4 -5 12 0 17 2 24 5 18 2 -7 2 -21 0 -30z"/>
<path d="M5686 6241 c-14 -124 -74 -288 -113 -310 -10 -5 -16 -11 -13 -13 3
-3 34 -26 70 -53 82 -62 175 -149 210 -197 l27 -38 7 58 c11 98 -23 412 -44
412 -4 0 -11 -20 -14 -44 -4 -24 -13 -52 -21 -62 -14 -18 -14 -18 -15 1 -1 24
-74 292 -82 300 -3 3 -8 -21 -12 -54z"/>
<path d="M5266 4838 c13 -38 7 -71 -16 -90 -29 -24 -65 -23 -107 3 -42 26 -63
14 -45 -25 15 -34 73 -52 123 -37 72 22 116 113 73 155 -23 23 -37 20 -28 -6z"/>
<path d="M3770 4821 c-15 -28 -12 -73 6 -99 52 -74 203 -67 204 11 0 21 -27
22 -50 2 -30 -27 -73 -29 -104 -4 -25 20 -28 27 -23 66 5 47 -13 60 -33 24z"/>
<path d="M4263 6303 c9 -2 25 -2 35 0 9 3 1 5 -18 5 -19 0 -27 -2 -17 -5z"/>
<path d="M4808 6303 c6 -2 18 -2 25 0 6 3 1 5 -13 5 -14 0 -19 -2 -12 -5z"/>
<path d="M6019 2713 c-13 -16 -12 -17 4 -4 16 13 21 21 13 21 -2 0 -10 -8 -17
-17z"/>
<path d="M6062 2700 c0 -14 2 -19 5 -12 2 6 2 18 0 25 -3 6 -5 1 -5 -13z"/>
<path d="M6052 2600 c0 -19 2 -27 5 -17 2 9 2 25 0 35 -3 9 -5 1 -5 -18z"/>
</g>
</svg>
